#!OML:ASF H:\GeneralSubjects\Female5\Project 1\Capture day 1\Session 1\Female5.ASF
:FULLY-SPECIFIED
:DEGREES
1057
root -3.78264 15.8413 14.4813 -138.854 -86.0738 -211.324
lowerback 17.8233 2.07368 -3.11183
upperback -12.9583 1.56023 -0.132315
thorax -26.008 1.02158 1.09025
lowerneck -13.9252 -2.45437 -1.99983
upperneck 38.6609 -5.21888 0.750311
head 16.2217 -2.97513 -0.406888
rclavicle -9.93923e-016 6.16232e-015
rhumerus -62.0976 14.7946 -84.1792
rradius 32.466
rwrist -11.6469
rhand -25.2002 -21.3925
rfingers 7.12502
rthumb 1.31826 -51.3682
lclavicle -9.93923e-016 6.16232e-015
lhumerus -50.5976 -10.9935 80.2442
lradius 38.5827
lwrist -2.74197
lhand -28.2431 28.3265
lfingers 7.12502
lthumb -1.62071 58.3001
rfemur -35.3449 -0.0560563 26.4233
rtibia 48.6693
rfoot -16.1555 -25.4553
rtoes -2.5575
lfemur -0.358396 -17.9773 -36.9082
ltibia 9.23504
lfoot -29.2983 -3.18347
ltoes -38.0572
1058
root -3.86537 15.8203 14.487 -143.108 -85.702 -206.692
lowerback 17.6555 2.1865 -3.28429
upperback -13.0201 1.66102 -0.148717
thorax -25.9944 1.0886 1.13424
lowerneck -13.8334 -2.51322 -2.10062
upperneck 38.3798 -5.37252 1.06596
head 16.0738 -3.00659 -0.270107
rclavicle 6.11263e-015 1.0138e-014
rhumerus -62.545 14.6137 -84.7251
rradius 32.232
rwrist -11.7393
rhand -24.8617 -21.41
rfingers 7.12502
rthumb 1.64517 -51.3834
lclavicle 6.11263e-015 1.0138e-014
lhumerus -50.2033 -11.4039 80.6063
lradius 38.7501
lwrist -3.62636
lhand -27.6635 28.5577
lfingers 7.12502
lthumb -1.0609 58.5348
rfemur -36.9223 1.09184 26.6448
rtibia 46.8286
rfoot -16.5144 -25.0225
rtoes -3.78371
lfemur -0.0976965 -17.8286 -36.9567
ltibia 8.62158
lfoot -29.3438 -3.0233
ltoes -37.5217
1059
root -3.96645 15.812 14.488 -144.671 -85.6511 -204.879
lowerback 17.697 2.17881 -3.24828
upperback -13.1235 1.63225 -0.21851
thorax -26.1751 1.05863 1.04053
lowerneck -13.835 -2.56161 -2.1898
upperneck 38.5401 -5.54491 1.29283
head 16.1755 -3.06653 -0.191731
rclavicle -1.16786e-014 -9.74045e-015
rhumerus -63.1478 14.3556 -85.3721
rradius 32.0264
rwrist -11.6396
rhand -24.625 -21.3739
rfingers 7.12502
rthumb 1.87377 -51.3455
lclavicle -1.16786e-014 -9.74045e-015
lhumerus -50.2199 -12.0875 81.2134
lradius 39.2233
lwrist -3.90888
lhand -28.4826 28.9514
lfingers 7.12502
lthumb -1.85202 58.9231
rfemur -37.7731 2.17125 26.6011
rtibia 43.8511
rfoot -17.9387 -23.4379
rtoes -2.48018
lfemur 0.378247 -17.9929 -37.0067
ltibia 8.04896
lfoot -29.6549 -3.14593
ltoes -37.1967
1060
root -4.08078 15.8094 14.4915 -145.066 -85.7841 -204.324
lowerback 17.7139 2.11471 -3.13281
upperback -13.1251 1.57002 -0.245224
thorax -26.1793 1.00858 0.96633
lowerneck -14.0111 -2.63767 -2.2161
upperneck 38.6818 -5.68239 1.32313
head 16.2994 -3.12202 -0.206261
rclavicle 8.32411e-015 4.67144e-015
rhumerus -63.5808 14.155 -85.8971
rradius 31.8789
rwrist -11.4458
rhand -24.624 -21.0044
rfingers 7.12502
rthumb 1.87468 -50.9759
lclavicle 8.32411e-015 4.67144e-015
lhumerus -50.1962 -12.6701 81.9415
lradius 39.7128
lwrist -3.81653
lhand -24.1969 32.5322
lfingers 7.12502
lthumb 2.28716 62.4996
rfemur -38.1358 3.19378 26.3186
rtibia 39.9245
rfoot -18.5896 -22.0661
rtoes -3.29197
lfemur 1.05754 -18.3147 -37.108
ltibia 7.42483
lfoot -30.0269 -3.22363
ltoes -37.1012
1061
root -4.20266 15.8008 14.4972 -147.743 -86.0016 -201.492
lowerback 17.6499 2.03504 -2.83332
upperback -13.0667 1.56968 -0.192705
thorax -26.0321 0.961829 0.858314
lowerneck -14.2286 -2.67047 -2.31577
upperneck 38.6951 -5.74691 1.46488
head 16.3729 -3.13628 -0.143624
rclavicle 1.28216e-014 1.09332e-014
rhumerus -63.934 13.9247 -86.2437
rradius 31.8016
rwrist -11.0641
rhand -24.8243 -20.2174
rfingers 7.12502
rthumb 1.68129 -50.1906
lclavicle 1.28216e-014 1.09332e-014
lhumerus -50.1208 -13.2423 82.7053
lradius 40.176
lwrist -3.57129
lhand -26.2968 29.7519
lfingers 7.12502
lthumb 0.259092 59.7315
rfemur -38.3038 4.41512 26.0401
rtibia 35.2553
rfoot -17.1787 -22.3729
rtoes -11.8039
lfemur 1.8213 -18.7208 -37.0611
ltibia 6.74743
lfoot -30.3736 -3.0623
ltoes -36.9514
1062
root -4.3336 15.7892 14.503 -147.779 -86.1739 -201.284
lowerback 17.6668 1.9493 -2.63113
upperback -13.0713 1.50362 -0.217696
thorax -26.0377 0.894553 0.737598
lowerneck -14.4203 -2.71897 -2.43097
upperneck 38.7121 -5.80087 1.53128
head 16.439 -3.16015 -0.108798
rclavicle 3.3048e-015 -4.77083e-015
rhumerus -64.3807 13.5284 -86.425
rradius 31.7513
rwrist -10.4112
rhand -25.0705 -19.311
rfingers 7.12502
rthumb 1.44349 -49.2859
lclavicle 3.3048e-015 -4.77083e-015
lhumerus -50.1212 -13.6167 83.3235
lradius 40.4753
lwrist -3.53492
lhand -25.966 29.0774
lfingers 7.12502
lthumb 0.578627 59.0563
rfemur -38.3963 6.1579 25.0559
rtibia 30.1984
rfoot -16.2275 -23.0679
rtoes -17.2472
lfemur 2.46155 -18.9354 -37.1955
ltibia 6.29183
lfoot -30.4686 -3.43359
ltoes -36.0088
1063
root -4.47494 15.7775 14.5045 -145.578 -86.3475 -203.308
lowerback 17.6437 1.85552 -2.56942
upperback -13.072 1.38159 -0.253869
thorax -26.0121 0.829225 0.707687
lowerneck -14.6671 -2.8489 -2.5062
upperneck 38.7199 -5.88831 1.35567
head 16.5019 -3.22351 -0.194148
rclavicle 1.20513e-014 8.44835e-015
rhumerus -64.7075 13.2377 -86.5465
rradius 31.6676
rwrist -9.84578
rhand -25.1133 -18.8677
rfingers 7.12502
rthumb 1.40211 -48.8429
lclavicle 1.20513e-014 8.44835e-015
lhumerus -49.9396 -13.5646 83.7635
lradius 40.4336
lwrist -3.64141
lhand -26.1593 28.4324
lfingers 7.12502
lthumb 0.3919 58.4118
rfemur -38.2265 8.44426 23.4193
rtibia 24.6871
rfoot -16.1332 -23.6682
rtoes -16.9583
lfemur 3.16493 -19.0851 -37.4615
ltibia 5.77022
lfoot -30.452 -3.94997
ltoes -35.0481
1064
root -4.62761 15.7595 14.4974 -145.67 -86.6059 -203.005
lowerback 17.5426 1.76404 -2.40768
upperback -13.0893 1.30953 -0.221367
thorax -25.9564 0.77518 0.684383
lowerneck -15.0135 -2.98911 -2.75153
upperneck 38.9521 -6.03243 1.33836
head 16.7268 -3.31618 -0.200031
rclavicle -1.80149e-015 -5.26779e-015
rhumerus -64.982 12.9661 -86.5607
rradius 31.6426
rwrist -9.45041
rhand -24.6566 -19.2079
rfingers 7.12502
rthumb 1.84323 -49.1797
lclavicle -1.80149e-015 -5.26779e-015
lhumerus -49.8768 -13.4032 84.1504
lradius 40.5346
lwrist -3.62909
lhand -25.6164 29.211
lfingers 7.12502
lthumb 0.916194 59.1887
rfemur -37.8534 11.3587 21.5323
rtibia 18.8547
rfoot -16.154 -24.2076
rtoes -15.7331
lfemur 4.06042 -19.5956 -37.605
ltibia 5.01768
lfoot -30.769 -4.22707
ltoes -34.1717
1065
root -4.79283 15.7334 14.4877 -142.143 -86.7904 -206.292
lowerback 17.4252 1.67321 -2.39228
upperback -13.1923 1.15886 -0.298568
thorax -26.0179 0.698104 0.645506
lowerneck -14.8838 -3.04541 -2.90008
upperneck 38.6425 -6.05865 1.42299
head 16.5404 -3.33304 -0.130149
rclavicle -1.73937e-015 8.94531e-016
rhumerus -65.3791 12.581 -86.5692
rradius 31.6696
rwrist -9.42822
rhand -23.8743 -19.9414
rfingers 7.12502
rthumb 2.59873 -49.9053
lclavicle -1.73937e-015 8.94531e-016
lhumerus -50.1882 -13.4982 84.5511
lradius 40.9022
lwrist -3.34588
lhand -24.6465 30.7209
lfingers 7.12502
lthumb 1.85301 60.6926
rfemur -37.6933 14.8099 18.8215
rtibia 13.4315
rfoot -16.3249 -25.1956
rtoes -15.9768
lfemur 5.04683 -20.4303 -38.1012
ltibia 4.22973
lfoot -31.3483 -4.23515
ltoes -33.2894
1066
root -4.96582 15.7026 14.4714 -136.607 -86.8701 -211.586
lowerback 17.2541 1.60206 -2.56454
upperback -13.3006 0.966647 -0.428184
thorax -26.0517 0.630563 0.669103
lowerneck -15.1379 -3.14437 -2.8772
upperneck 38.9951 -6.22864 1.33351
head 16.7932 -3.41446 -0.2216
rclavicle -1.35546e-014 -2.08724e-015
rhumerus -65.736 12.279 -86.6939
rradius 31.6633
rwrist -9.75351
rhand -23.4956 -20.3194
rfingers 7.12502
rthumb 2.9645 -50.2785
lclavicle -1.35546e-014 -2.08724e-015
lhumerus -50.4787 -13.7964 84.9437
lradius 41.0947
lwrist -2.80546
lhand -24.86 30.3516
lfingers 7.12502
lthumb 1.64674 60.325
rfemur -38.0286 18.9681 15.2891
rtibia 8.7862
rfoot -15.0518 -28.1066
rtoes -22.4213
lfemur 6.08202 -21.2008 -38.7314
ltibia 3.39242
lfoot -31.845 -4.18912
ltoes -32.3488
1067
root -5.14966 15.6653 14.4448 -135.275 -87.0108 -212.703
lowerback 16.9912 1.56645 -2.65355
upperback -13.3472 0.889386 -0.432307
thorax -25.9301 0.613183 0.750756
lowerneck -15.2677 -3.25482 -2.9894
upperneck 38.9493 -6.34999 1.34901
head 16.8113 -3.47297 -0.219938
rclavicle -1.07965e-014 2.73329e-015
rhumerus -65.878 12.0837 -86.6735
rradius 31.6624
rwrist -10.0639
rhand -23.4033 -20.2238
rfingers 7.12502
rthumb 3.05359 -50.1817
lclavicle -1.07965e-014 2.73329e-015
lhumerus -50.5509 -13.853 85.2116
lradius 41.064
lwrist -2.59389
lhand -25.7173 29.9917
lfingers 7.12502
lthumb 0.818802 59.9698
rfemur -38.6812 22.6708 12.3904
rtibia 6.38768
rfoot -18.041 -29.3206
rtoes -19.5892
lfemur 7.25904 -21.8389 -39.1025
ltibia 2.44964
lfoot -32.3051 -4.18971
ltoes -31.4094
1068
root -5.34743 15.625 14.4221 -132.102 -87.186 -215.719
lowerback 16.7114 1.51261 -2.68091
upperback -13.4027 0.806459 -0.428874
thorax -25.8074 0.582779 0.807831
lowerneck -15.375 -3.37006 -3.13753
upperneck 38.9077 -6.43468 1.28699
head 16.8225 -3.53323 -0.239035
rclavicle 1.12189e-014 4.37326e-015
rhumerus -66.026 11.9062 -86.4825
rradius 31.6658
rwrist -10.181
rhand -23.2917 -20.1482
rfingers 7.12502
rthumb 3.16145 -50.1045
lclavicle 1.12189e-014 4.37326e-015
lhumerus -50.6511 -13.6533 85.3732
lradius 40.878
lwrist -2.91079
lhand -26.6112 30.4558
lfingers 7.12502
lthumb -0.0446039 60.4356
rfemur -39.2871 25.0594 10.3173
rtibia 5.10195
rfoot -18.7998 -30.8474
rtoes -20.228
lfemur 8.55305 -22.6156 -39.6582
ltibia 1.63312
lfoot -32.8757 -4.1505
ltoes -30.4211
1069
root -5.55214 15.5852 14.4027 -127.122 -87.3116 -220.591
lowerback 16.5524 1.44098 -2.66183
upperback -13.5107 0.688325 -0.48714
thorax -25.8475 0.519976 0.775941
lowerneck -15.3667 -3.45401 -3.23567
upperneck 39.0218 -6.52703 1.22321
head 16.8866 -3.59897 -0.27123
rclavicle 3.89494e-015 -8.69683e-015
rhumerus -66.2109 11.5788 -86.1943
rradius 31.5218
rwrist -9.89971
rhand -23.514 -20.0331
rfingers 7.12502
rthumb 2.94674 -49.9925
lclavicle 3.89494e-015 -8.69683e-015
lhumerus -50.9707 -13.6495 85.6207
lradius 40.5988
lwrist -2.83278
lhand -26.5002 30.2968
lfingers 7.12502
lthumb 0.0626613 60.2766
rfemur -39.377 24.9878 10.2452
rtibia 5.20343
rfoot -17.3542 -31.1814
rtoes -24.1941
lfemur 9.77119 -23.1767 -40.2652
ltibia 1.07578
lfoot -33.3425 -4.22314
ltoes -29.5217
1070
root -5.76538 15.5432 14.3759 -125.357 -87.3697 -222.28
lowerback 16.4111 1.39001 -2.62849
upperback -13.5936 0.610679 -0.522928
thorax -25.8648 0.474407 0.746477
lowerneck -15.4199 -3.58391 -3.52034
upperneck 39.1584 -6.7334 1.40398
head 17.0063 -3.70424 -0.187091
rclavicle -5.06901e-015 -6.4605e-016
rhumerus -66.1895 11.1678 -85.7757
rradius 31.3346
rwrist -9.57058
rhand -23.6655 -19.9696
rfingers 7.12502
rthumb 2.80045 -49.931
lclavicle -5.06901e-015 -6.4605e-016
lhumerus -51.3171 -13.7616 85.899
lradius 40.2334
lwrist -2.30049
lhand -23.667 31.3753
lfingers 7.12502
lthumb 2.799 61.3367
rfemur -38.9634 23.0704 12.1302
rtibia 6.46816
rfoot -14.4533 -29.7368
rtoes -29.2004
lfemur 10.809 -22.9456 -40.5614
ltibia 0.749324
lfoot -33.3318 -4.67046
ltoes -28.7581
